<?xml version="1.0" encoding="iso-8859-1"?>
<!-- Generator: Adobe Illustrator 19.0.0, SVG Export Plug-In . SVG Version: 6.00 Build 0)  -->
<svg version="1.1" id="Layer_1" xmlns="http://www.w3.org/2000/svg" xmlns:xlink="http://www.w3.org/1999/xlink" x="0px" y="0px"
	 viewBox="0 0 496.2 496.2" style="enable-background:new 0 0 496.2 496.2;" xml:space="preserve">
<path style="fill:#48A1AF;" d="M496.2,248.1C496.2,111.1,385.1,0,248.1,0S0,111.1,0,248.1s111.1,248.1,248.1,248.1
	S496.2,385.1,496.2,248.1z"/>
<polygon style="fill:#C7C8C9;" points="210.2,335.4 247.8,363.5 286,335.4 287.9,322.3 247.9,317 208.3,322.3 "/>
<path style="fill:#E4E9ED;" d="M248.1,496.2c70.2,0,133.6-29.2,178.7-76c-2.8-15.1-5.6-28.9-8.3-37.4
	c-8.5-27.3-81.2-49.3-170.8-49.3s-161.5,22-170,49.3c-2.6,8.5-5.5,22.2-8.3,37.4C114.5,467,177.9,496.2,248.1,496.2z"/>
<rect x="140.3" y="433.6" style="fill:#C9DEE2;" width="63" height="10.5"/>
<g>
	<path style="fill:#172023;" d="M174.5,338.7c-2.2,0.3-4.4,0.7-6.5,1.1c-2.6,0.4-5.2,0.9-7.8,1.4c-1.7,0.3-3.4,0.7-5,1
		c-2.6,0.5-5.2,1.1-7.7,1.7c-1.7,0.4-3.3,0.8-4.9,1.2c-2.6,0.7-5.2,1.3-7.6,2c-1.6,0.5-3.2,0.9-4.8,1.4c-2.6,0.8-5.1,1.6-7.6,2.5
		c-2.2,0.8-4.3,1.5-6.3,2.3l2.5,12.2l58.8-12L174.5,338.7z"/>
	<path style="fill:#172023;" d="M372.4,350.7c-2.4-0.8-5-1.6-7.6-2.4c-1.6-0.5-3.2-0.9-4.8-1.4c-2.5-0.7-5-1.4-7.6-2
		c-1.6-0.4-3.3-0.8-4.9-1.2c-2.5-0.6-5.1-1.1-7.7-1.7c-1.7-0.3-3.3-0.7-5-1c-2.5-0.5-5.1-0.9-7.8-1.4c-2.2-0.4-4.3-0.7-6.6-1
		l-3,14.8l58.8,12l2.6-12.6C376.7,352.1,374.6,351.4,372.4,350.7z"/>
</g>
<g>
	<circle style="fill:#AF9604;" cx="367.3" cy="356.2" r="5"/>
	<circle style="fill:#AF9604;" cx="329.2" cy="347.9" r="5"/>
	<circle style="fill:#AF9604;" cx="128.7" cy="356.2" r="5"/>
	<circle style="fill:#AF9604;" cx="166.8" cy="347.9" r="5"/>
</g>
<path style="fill:#E4E9ED;" d="M248.1,496.2c0,0,89.2-162.8-0.4-162.8S248.1,496.2,248.1,496.2z"/>
<g>
	<polygon style="fill:#1E2021;" points="248.1,360.5 232.3,368.4 248.1,394 263.8,368.4 	"/>
	<path style="fill:#1E2021;" d="M251.6,377.4h-3.5v0.7v-0.7h-3.5c0,0-13.4,15.9-15.4,38.5c-1.6,18-4,53.4-5.3,79
		c8,0.8,16,1.2,24.2,1.2c8.2,0,16.3-0.4,24.2-1.2c-1.3-25.6-3.7-61-5.3-79C265,393.3,251.6,377.4,251.6,377.4z"/>
</g>
<g>
	<path style="fill:#E2A379;" d="M287,282.1h-77.8c12.1,36.6,1,53.3,1,53.3l26.9,6.1h22l26.9-6.1C286,335.4,274.9,318.7,287,282.1z"
		/>
	<path style="fill:#E2A379;" d="M210.2,335.4c0,0,16.8,28.1,37.6,28.1s38.2-28.1,38.2-28.1L247.8,317L210.2,335.4z"/>
</g>
<path style="fill:#F4B382;" d="M336.4,175.2c0-92.4-39.5-113.6-88.3-113.6c-48.7,0-88.3,21.2-88.3,113.6c0,31.3,6.2,55.8,15.5,74.7
	c20.4,41.6,55.7,56.1,72.8,56.1s52.4-14.5,72.8-56.1C330.2,231,336.4,206.5,336.4,175.2z"/>
<path style="fill:#E5A173;" d="M274.8,257c0,2.6-11.9,9.5-26.7,9.5s-26.7-7-26.7-9.5c0-1.6,8.5-6.1,14.1-6.9
	c3.6-0.5,12.5,2.9,12.5,2.9s8.8-3.4,12.4-2.9C266.2,250.9,274.8,257,274.8,257z"/>
<path style="fill:#D89364;" d="M274.8,257c0,2.6-11.9,12.4-26.7,12.4s-26.7-9.9-26.7-12.4c0,0,10.9,1.3,26.7,1.3
	S274.8,257,274.8,257z"/>
<g>
	<path style="fill:#F4B382;" d="M170.4,238.7c-8.4,1.4-14.4,0.1-19.1-27.7s1.7-31.5,10.1-32.9L170.4,238.7z"/>
	<path style="fill:#F4B382;" d="M325.9,238.7c8.4,1.4,14.3,0.1,19.1-27.7c4.8-27.8-1.7-31.5-10.1-32.9L325.9,238.7z"/>
</g>
<g>
	<path style="fill:#47200D;" d="M336.4,175.2c0-92.4-30.3-116.1-88.3-116.1s-88.3,23.7-88.3,116.1l39.8-33.1c0,0,26.5,0,48.5,0
		s46.2-35.3,46.2-35.3L336.4,175.2z"/>
	<path style="fill:#47200D;" d="M165.5,140.8c-4.2,10.9-5.6,24.4-5.6,37.5c0,0,8.8-1.9,8.8,2.6l2.8,27.6l3.9-1.9
		c-0.2-23,4.9-68,4.9-68L165.5,140.8z"/>
	<path style="fill:#47200D;" d="M330.8,140.8c4.2,10.9,5.6,24.4,5.6,37.5c0,0-8.8-1.9-8.8,2.6l-2.8,27.6l-3.9-1.9
		c0.2-23-4.9-66.2-4.9-66.2L330.8,140.8z"/>
</g>
<g>
	<polygon style="fill:#D4D6D8;" points="305.8,337.8 287.9,322.3 248.1,363.9 284.7,374.1 	"/>
	<polygon style="fill:#D4D6D8;" points="190.4,337.8 208.3,322.3 248.1,363.9 211.5,374.1 	"/>
</g>
<g>
	<path style="fill:#2A3F49;" d="M197.7,335.8L197.7,335.8L197.7,335.8z"/>
	<path style="fill:#2A3F49;" d="M311.5,337.4L311.5,337.4L311.5,337.4L311.5,337.4z"/>
	<path style="fill:#2A3F49;" d="M298.5,335.9L298.5,335.9L298.5,335.9z"/>
</g>
<path style="fill:#191919;" d="M247.9,40.4c-60.8,0-113.4,37.5-113,38c3.4,4.4,27.4,30.7,27.4,30.7l1.2,15.6c0,0-0.2,14.5,13.9,14.5
	s31.6,4,70.6,4s56.3-4,70.6-4c14.4,0,14.2-14.9,14.2-14.9l0.9-15.2c6.9-6.8,23.6-25.8,27.2-30.4C361.5,78.1,308.8,40.4,247.9,40.4z"
	/>
<path d="M333.9,109.1l0.1-0.1c-14.5-6.1-46.2-17-85.9-17c-39.8,0-71.4,11-86,17.1c0.1,0.1,0.2,0.1,0.2,0.1l1.1,15.6
	c15.1-8.3,46-16.7,84.7-16.7s69.6,8.3,84.7,16.7L333.9,109.1z"/>
<path style="fill:#D3C624;" d="M269.4,68.3c2.9-4.3-0.1-11.7-7-9.3c-6.6,2.4-14-2.7-14.3-2.9l0,0l0,0l0,0l0,0l0,0l0,0l0,0l0,0
	c-0.3,0.2-7.6,5.2-14.3,2.9c-6.9-2.4-9.9,4.9-7,9.3c3.2,4.7,3.7,7,3.7,7.9c0,2.5-9.2,7.8-2,19.5c2.7,4.3,4.5,3.7,14.5,4.7
	c0,0,4.5,1.6,5.1,4.6v-1.4v1.4c0.6-3,5.1-4.6,5.1-4.6c10-1,11.8-0.4,14.5-4.7c7.2-11.7-2-17-2-19.5
	C265.7,75.4,266.2,73.1,269.4,68.3z"/>
<path style="fill:#F7EEC1;" d="M260.9,76.6c-0.2-0.6-0.7-1.1-1.4-1.2l-6.8-1l-3.1-6.2c-0.6-1.2-2.5-1.2-3.1,0l-3.1,6.2l-6.8,1
	c-0.7,0.1-1.2,0.6-1.4,1.2s0,1.3,0.4,1.8l4.9,4.8l-1.2,6.8c-0.1,0.7,0.2,1.3,0.7,1.7c0.5,0.4,1.3,0.4,1.8,0.1l6.1-3.2l6.1,3.2
	c0.3,0.1,0.5,0.2,0.8,0.2c0.4,0,0.7-0.1,1-0.3c0.5-0.4,0.8-1.1,0.7-1.7l-1.2-6.8l4.9-4.8C260.9,77.9,261.1,77.2,260.9,76.6z"/>
<g>
</g>
<g>
</g>
<g>
</g>
<g>
</g>
<g>
</g>
<g>
</g>
<g>
</g>
<g>
</g>
<g>
</g>
<g>
</g>
<g>
</g>
<g>
</g>
<g>
</g>
<g>
</g>
<g>
</g>
</svg>
